<?xml version="1.0" encoding="UTF-8" standalone="no"?>
<!-- Created with Inkscape (http://www.inkscape.org/) -->
<svg
   xmlns:dc="http://purl.org/dc/elements/1.1/"
   xmlns:cc="http://web.resource.org/cc/"
   xmlns:rdf="http://www.w3.org/1999/02/22-rdf-syntax-ns#"
   xmlns:svg="http://www.w3.org/2000/svg"
   xmlns="http://www.w3.org/2000/svg"
   xmlns:xlink="http://www.w3.org/1999/xlink"
   xmlns:sodipodi="http://sodipodi.sourceforge.net/DTD/sodipodi-0.dtd"
   xmlns:inkscape="http://www.inkscape.org/namespaces/inkscape"
   width="493.93768"
   height="298.06741"
   id="svg2"
   sodipodi:version="0.32"
   inkscape:version="0.45.1"
   version="1.0"
   sodipodi:docbase="C:\Documents and Settings\Utente Microsoft\Documenti"
   sodipodi:docname="All sports.svg"
   inkscape:output_extension="org.inkscape.output.svg.inkscape">
  <defs
     id="defs4">
    <g
       clip-path="url(#ball)"
       id="black_stuff"
       style="stroke-linejoin:round">
      <g
         id="g2281"
         style="fill:#000000">
        <path
           id="path2283"
           d="M 6,-32 C 19.333333,-29.333333 32.666667,-25 46,-19 C 53.333333,-29.666667 59.333333,-39 64,-47 C 54.666667,-61 45.666667,-70.666667 37,-76 C 23.666667,-75.333333 11.666667,-72.666667 1,-68 C 3,-56.666667 4.6666667,-44.666667 6,-32" />
        <path
           id="path2285"
           d="M -26,-2 C -38.666667,-6 -50.666667,-9 -62,-11 C -70,-0.33333333 -74.666667,10.666667 -76,22 C -71.333333,34 -62.666667,44.666667 -50,54 C -38,49.333333 -27,44.333333 -17,39 C -21,23 -24,9.3333333 -26,-2" />
        <path
           id="path2287"
           d="M -95,22 C -99.666667,15.333333 -102,5.3333333 -102,-8 L -102,80 L -85,80 C -91.666667,56.666667 -95,37.333333 -95,22" />
        <path
           id="path2289"
           d="M 55,24 C 45.666667,35.333333 35.333333,44.666667 24,52 C 26.666667,60.666667 29,69.666667 31,79 C 47,78.333333 59.333333,74.333333 68,67 C 74.666667,55.666667 78.666667,45 80,35 C 70,30.333333 61.666667,26.666667 55,24" />
        <path
           id="path2291"
           d="M 0,120 L -3,95 C -17.666667,93.666667 -30.666667,89.333333 -42,82 C -47.333333,83.333333 -53.333333,83 -60,81" />
        <path
           id="path2293"
           d="M -90,-48 C -83.333333,-50.666667 -76,-51 -68,-49 C -57.333333,-63.666667 -46.333333,-73 -35,-77 C -35,-92.333333 -36.666667,-100 -40,-100 L -100,-100" />
        <path
           id="path2295"
           d="M 100,-55 L 87,-37 C 94.333333,-19 97.666667,-5 97,5 L 100,6" />
      </g>
      <g
         id="g2297"
         style="fill:none">
        <path
           id="path2299"
           d="M 6,-32 C -10,-18.666667 -20.666667,-8.6666667 -26,-2 M 46,-19 C 51.333333,-3 54.333333,11.333333 55,24 M 64,-47 C 72.666667,-45 80.333333,-41.666667 87,-37 M 37,-76 C 38.333333,-85.333333 38,-93.333333 36,-100 M 1,-68 C -8.3333333,-74 -20.333333,-77 -35,-77 M -62,-11 C -65.333333,-20.333333 -67.333333,-33 -68,-49 M -76,22 C -82,23.333333 -88.333333,23.333333 -95,22 M -50,54 C -49.333333,64.666667 -46.666667,74 -42,82 M -17,39 C -5.6666667,45 8,49.333333 24,52 M 31,79 C 23.666667,87.666667 12.333333,93 -3,95 M 68,67 L 80,80 M 80,35 C 86.666667,28.333333 92.333333,18.333333 97,5" />
      </g>
    </g>
    <radialGradient
       r="100"
       cy="0"
       cx="0"
       id="shadow2"
       fx="0"
       fy="0"
       gradientUnits="userSpaceOnUse">
      <stop
         id="stop2272"
         stop-opacity="0"
         stop-color="white"
         offset="0" />
      <stop
         id="stop2274"
         stop-opacity="0"
         stop-color="white"
         offset=".8" />
      <stop
         id="stop2276"
         stop-opacity=".3"
         stop-color="black"
         offset=".99" />
      <stop
         id="stop2278"
         stop-opacity="1"
         stop-color="black"
         offset="1" />
    </radialGradient>
    <radialGradient
       r="160"
       cy="-39.999996"
       cx="-19.999998"
       id="shadow1"
       fx="-19.999998"
       fy="-39.999996"
       gradientUnits="userSpaceOnUse">
      <stop
         id="stop2265"
         stop-opacity="1"
         stop-color="white"
         offset="0" />
      <stop
         id="stop2267"
         stop-opacity="1"
         stop-color="white"
         offset=".4" />
      <stop
         id="stop2269"
         stop-opacity="1"
         stop-color="#EEEEEE"
         offset=".8" />
    </radialGradient>
    <clipPath
       id="ball">
      <circle
         id="circle2262"
         r="100"
         cx="0"
         cy="0"
         sodipodi:cx="0"
         sodipodi:cy="0"
         sodipodi:rx="100"
         sodipodi:ry="100"
         style="stroke-width:0" />
    </clipPath>
    <linearGradient
       id="linearGradient12963">
      <stop
         id="stop12965"
         offset="0"
         style="stop-color:#fa4;stop-opacity:1" />
      <stop
         style="stop-color:#c3791f;stop-opacity:1;"
         offset="0.5"
         id="stop15642" />
      <stop
         id="stop12967"
         offset="1"
         style="stop-color:#935000;stop-opacity:1;" />
    </linearGradient>
    <linearGradient
       id="linearGradient18301">
      <stop
         id="stop18303"
         offset="0"
         style="stop-color:black;stop-opacity:1;" />
      <stop
         style="stop-color:black;stop-opacity:1;"
         offset="0.5"
         id="stop18309" />
      <stop
         id="stop18311"
         offset="0.75"
         style="stop-color:black;stop-opacity:1;" />
      <stop
         style="stop-color:black;stop-opacity:0.72164947;"
         offset="0.875"
         id="stop18313" />
      <stop
         id="stop18315"
         offset="0.9375"
         style="stop-color:black;stop-opacity:0.50515461;" />
      <stop
         style="stop-color:black;stop-opacity:0.3298969;"
         offset="0.96875"
         id="stop18317" />
      <stop
         id="stop18305"
         offset="1"
         style="stop-color:black;stop-opacity:0;" />
    </linearGradient>
    <radialGradient
       inkscape:collect="always"
       xlink:href="#linearGradient12963"
       id="radialGradient2497"
       gradientUnits="userSpaceOnUse"
       gradientTransform="matrix(1.06455,-4.457048e-3,4.186833e-3,1.000012,-30.43703,1.997764)"
       cx="449.12918"
       cy="345.23175"
       fx="449.12918"
       fy="345.23175"
       r="184.96443" />
  </defs>
  <sodipodi:namedview
     id="base"
     pagecolor="#ffffff"
     bordercolor="#666666"
     borderopacity="1.0"
     inkscape:pageopacity="0.0"
     inkscape:pageshadow="2"
     inkscape:zoom="0.35"
     inkscape:cx="377.62094"
     inkscape:cy="537.05953"
     inkscape:document-units="px"
     inkscape:current-layer="layer1"
     inkscape:window-width="1280"
     inkscape:window-height="740"
     inkscape:window-x="-4"
     inkscape:window-y="-4" />
  <metadata
     id="metadata7">
    <rdf:RDF>
      <cc:Work
         rdf:about="">
        <dc:format>image/svg+xml</dc:format>
        <dc:type
           rdf:resource="http://purl.org/dc/dcmitype/StillImage" />
      </cc:Work>
    </rdf:RDF>
  </metadata>
  <g
     inkscape:label="Livello 1"
     inkscape:groupmode="layer"
     id="layer1"
     transform="translate(0.6329492,-161.90769)">
    <path
       style="fill:#ff0000"
       d="M 255.10009,459.66149 C 255.10009,459.49447 272.18926,439.9092 293.07602,416.13867 C 313.9628,392.36814 331.70802,371.85756 332.50987,370.55961 C 333.91137,368.29102 333.80466,368.02854 329.75246,363.77646 C 324.97234,358.76057 323.55561,355.40277 323.5752,349.13563 C 323.59376,343.20106 325.24159,339.91799 329.33562,337.65887 C 332.31492,336.01488 333.45488,335.9144 337.7441,336.91774 C 349.38327,339.64041 365.27871,351.62076 381.49351,369.89155 C 399.3631,390.02695 400.92421,398.25717 389.26346,410.85501 C 381.38803,419.36333 372.14313,423.82753 348.07818,430.74261 C 340.25336,432.99109 333.69927,434.12169 325.87445,434.57284 C 313.45785,435.28872 313.03115,434.72095 322.63641,430.2644 C 325.94384,428.72986 336.76816,422.76884 346.69045,417.0177 C 364.35181,406.78085 371.66963,401.00397 371.66963,397.2985 C 371.66963,395.26211 367.08116,390.60358 362.82042,388.31414 C 360.01663,386.80758 359.78519,386.87854 354.93019,390.73331 C 352.17926,392.9175 348.46708,396.13588 346.68092,397.88528 C 342.12055,402.35178 333.1332,408.70311 297.65722,432.53017 C 258.15921,459.05859 255.10009,461.00887 255.10009,459.66149 z M 444.29431,362.08015 C 439.31722,360.64526 435.13358,357.59027 429.95441,351.60878 C 417.05349,336.70941 413.54297,315.61962 422.75373,308.35011 C 428.8692,303.52354 435.30453,309.25927 440.18394,323.88544 C 445.17894,338.85809 451.25088,344.07983 459.09679,340.15013 C 469.79122,334.79371 482.45348,320.37991 488.54617,306.6271 L 492.62954,297.40987 L 493.1519,301.79827 C 494.72095,314.97968 483.96844,339.95201 471.98948,350.94729 C 462.5153,359.64348 451.3752,364.12156 444.29431,362.08015 z M 314.32041,312.01712 C 311.54853,290.22663 315.99747,270.8304 326.49853,258.92354 C 331.94464,252.74837 336.7005,250.21491 343.94699,249.62873 C 362.92979,248.09315 389.18893,268.07969 389.23855,284.10135 C 389.24998,287.79395 386.9893,292.78588 384.67305,294.1827 C 379.59877,297.2427 373.64379,294.39889 362.67083,283.67545 C 354.15491,275.35319 348.19769,271.26392 344.64571,271.30231 C 340.79588,271.34391 335.02689,275.11983 331.5878,279.84892 C 327.34298,285.68603 322.73086,297.00839 319.36679,309.85053 C 317.93994,315.2974 316.48986,320.12831 316.14437,320.58591 C 315.79891,321.0435 314.97811,317.18755 314.32041,312.01712 z M 416.82369,300.99128 C 411.32457,298.71365 407.86219,295.19941 405.29735,289.29237 C 400.48854,278.21724 404.17058,266.29626 414.16137,260.59417 C 424.98201,254.41848 437.17749,258.72019 442.41337,270.55949 C 446.43123,279.64463 445.13837,287.63972 438.43521,295.16056 C 432.17609,302.1832 424.62207,304.22126 416.82369,300.99128 z "
       id="path2392" />
    <g
       id="g2490"
       transform="matrix(0.4353805,0,0,0.4353805,90.87813,66.034477)">
      <path
         transform="translate(-244.21553,329.42919)"
         d="M 675.82158 379.50504 A 182.96443 182.96443 0 1 1  309.89272,379.50504 A 182.96443 182.96443 0 1 1  675.82158 379.50504 z"
         sodipodi:ry="182.96443"
         sodipodi:rx="182.96443"
         sodipodi:cy="379.50504"
         sodipodi:cx="492.85715"
         id="path8522"
         style="fill:url(#radialGradient2497);fill-opacity:1;stroke:none;stroke-width:4;stroke-linecap:round;stroke-linejoin:round;stroke-miterlimit:4;stroke-dasharray:none;stroke-dashoffset:0;stroke-opacity:1"
         sodipodi:type="arc" />
      <path
         sodipodi:nodetypes="cssssccsssscc"
         id="path9409"
         d="M 200.99879,532.2682 C 203.1476,533.06069 206.53621,534.37714 209.12822,536.14794 C 211.72023,537.91874 213.49174,540.02829 213.62822,542.42919 C 213.94097,547.93099 215.51503,552.65774 209.09697,562.64794 C 202.67891,572.63814 187.94581,587.50556 155.53447,610.86669 C 94.67645,654.73134 80.48203,747.54416 77.61221,773.88529 L 80.72287,781.64972 C 80.72287,781.64972 88.84784,663.87173 157.87822,614.11669 C 190.47474,590.62208 205.50512,575.59998 212.44072,564.80419 C 219.37632,554.0084 217.90639,547.07275 217.62822,542.17919 C 217.39089,538.00398 214.47796,534.98437 211.37822,532.86669 C 210.09947,531.99307 208.73091,531.29921 207.43781,530.66599 L 200.99879,532.2682 z "
         style="color:#000000;fill:#000000;fill-opacity:1;fill-rule:nonzero;stroke:none;stroke-width:4;stroke-linecap:butt;stroke-linejoin:miter;marker:none;stroke-miterlimit:4;stroke-dasharray:none;stroke-dashoffset:0;stroke-opacity:1;visibility:visible;display:inline;overflow:visible" />
      <path
         sodipodi:nodetypes="csccscc"
         id="path9411"
         d="M 261.79975,526.45856 C 252.31805,538.30201 230.70169,573.93829 217.94072,665.17919 C 202.18075,777.86293 203.49299,875.26001 203.70045,886.26957 L 207.72197,887.17919 C 207.72197,887.17919 205.22125,785.03114 221.90947,665.71044 C 235.53202,568.30927 259.21816,535.28706 266.68495,526.89097 C 266.68495,526.89097 261.79975,526.45856 261.79975,526.45856 z "
         style="color:#000000;fill:#000000;fill-opacity:1;fill-rule:nonzero;stroke:none;stroke-width:4;stroke-linecap:butt;stroke-linejoin:miter;marker:none;stroke-miterlimit:4;stroke-dasharray:none;stroke-dashoffset:0;stroke-opacity:1;visibility:visible;display:inline;overflow:visible" />
      <path
         sodipodi:nodetypes="csssssccssssssccsc"
         id="path9413"
         d="M 309.47197,540.05419 C 299.82827,540.23869 289.8015,542.94463 282.75322,551.33544 C 273.52921,562.3164 273.70099,574.19203 277.28447,584.61669 C 280.86795,595.04135 287.66516,604.3545 291.75322,611.30419 C 293.98559,615.09922 300.24261,624.00698 308.22197,637.61669 C 316.20133,651.2264 325.8102,669.40588 334.50322,691.21044 C 351.88926,734.81957 365.51019,792.89956 354.72197,858.02294 C 354.72197,858.02294 359.34997,854.51091 359.34997,854.51091 C 369.04508,790.16625 355.4238,732.85751 338.22197,689.71044 C 329.43576,667.67214 319.71443,649.32409 311.65947,635.58544 C 303.60451,621.84679 297.13678,612.58123 295.19072,609.27294 C 290.92193,602.01599 284.37664,592.93596 281.06572,583.30419 C 277.7548,573.67242 277.49033,563.84037 285.81572,553.92919 C 293.9674,544.22481 306.98755,543.09362 318.34697,544.55419 C 329.70639,546.01476 339.046,549.94891 339.046,549.94891 C 339.046,549.94891 321.27982,540.98804 321.27982,540.98804 C 320.41995,540.84713 319.76649,540.69965 318.87822,540.58544 C 315.87724,540.19958 312.68654,539.99269 309.47197,540.05419 z "
         style="color:#000000;fill:#000000;fill-opacity:1;fill-rule:nonzero;stroke:none;stroke-width:4;stroke-linecap:butt;stroke-linejoin:miter;marker:none;stroke-miterlimit:4;stroke-dasharray:none;stroke-dashoffset:0;stroke-opacity:1;visibility:visible;display:inline;overflow:visible" />
      <path
         sodipodi:nodetypes="csccssccsc"
         id="path9415"
         d="M 210.94072,553.39794 C 177.11571,554.44513 151.98167,562.24018 134.28447,570.83544 C 128.84099,573.47926 124.14862,576.31182 120.06997,578.94426 C 115.5083,583.51384 110.27155,589.23501 103.34697,597.83544 C 103.34697,597.83544 113.08457,585.5756 136.03447,574.42919 C 158.98437,563.28278 195.00918,553.40748 247.31572,558.80419 C 351.96503,569.60134 395.99331,625.41394 428.50322,675.42919 C 428.50322,675.42919 426.1595,664.80274 426.1595,664.80274 C 393.81576,616.7536 347.77555,565.12717 247.72197,554.80419 C 234.47453,553.43739 222.21572,553.04888 210.94072,553.39794 z "
         style="color:#000000;fill:#000000;fill-opacity:1;fill-rule:nonzero;stroke:none;stroke-width:4;stroke-linecap:butt;stroke-linejoin:miter;marker:none;stroke-miterlimit:4;stroke-dasharray:none;stroke-dashoffset:0;stroke-opacity:1;visibility:visible;display:inline;overflow:visible" />
    </g>
    <path
       style="fill:#000080"
       d="M 87.996018,406.07973 C 84.978118,404.01723 79.542918,399.58615 75.917718,396.23289 L 69.326418,390.13605 L 71.553918,388.08386 L 73.781418,386.03167 L 83.281418,394.44497 C 93.449218,403.44967 96.024918,404.74249 100.46102,403.06803 C 102.89941,402.14764 103.49361,402.29467 104.78471,404.13787 C 106.78051,406.9873 106.70431,407.31601 103.73431,408.66921 C 98.817318,410.90957 93.872818,410.09604 87.996018,406.07973 z M 235.46501,407.07973 C 235.78081,404.33527 235.79751,404.32973 243.78141,404.32973 C 251.76531,404.32973 251.78201,404.33527 252.09781,407.07973 L 252.41421,409.82973 L 243.78141,409.82973 L 235.14861,409.82973 L 235.46501,407.07973 z M 223.28141,400.7113 C 217.31421,398.34434 214.61981,393.72936 189.91751,343.56405 L 165.18111,293.32973 L 159.48121,290.64759 C 148.28581,285.37945 131.13661,270.3148 124.30831,259.75013 C 116.77501,248.09459 112.53501,233.42305 111.61541,215.82973 C 111.16831,207.27372 111.35061,205.88407 113.45021,201.84474 C 117.93721,193.2123 126.59771,192.95489 130.77801,201.32973 C 132.43941,204.6583 132.73941,207.05792 132.56521,215.62527 C 132.21591,232.80875 137.52901,254.93186 144.38221,264.82973 C 146.09581,267.30473 147.15521,268.42973 146.73631,267.32973 C 140.94231,252.11476 139.59381,243.15077 141.20691,230.57288 C 143.01181,216.49862 145.80151,211.50244 152.28141,210.73867 C 155.27591,210.38572 160.79211,213.11232 161.66021,215.37453 C 162.68521,218.04554 162.36961,224.19265 160.78161,232.49176 C 158.76211,243.04557 158.81311,261.87586 160.88031,268.89823 C 161.75961,271.88555 165.14361,279.50473 168.40021,285.82973 C 171.65671,292.15473 184.81171,318.70473 197.63341,344.82973 C 223.11441,396.74862 222.50901,395.82973 231.23531,395.82973 C 233.51531,395.82973 236.68371,395.15593 238.27621,394.3324 C 240.98801,392.93011 241.26781,392.97219 242.68491,394.99537 C 243.51711,396.18353 243.93681,397.57824 243.61761,398.09473 C 241.63631,401.3005 228.89861,402.93942 223.28141,400.7113 z M 86.422318,385.07973 C 94.371818,376.38756 105.66651,356.81605 109.65051,344.82973 C 115.05341,328.57471 113.87051,316.78571 105.07911,299.26995 C 100.25522,289.65874 99.758918,289.0106 99.529518,292.02227 C 98.654318,303.51583 94.536218,317.9613 90.141918,324.95243 C 88.042318,328.29283 85.608718,330.44261 81.368918,332.70243 C 74.101818,336.57575 70.044218,336.67194 59.645218,333.21738 C 46.420013,328.82396 36.845213,323.25363 27.902913,314.75069 C 23.436113,310.50334 20.020613,306.78188 20.312913,306.48078 C 20.605313,306.17968 26.236113,307.89137 32.825813,310.28454 C 47.217713,315.51123 54.653613,317.0699 63.179118,316.64704 C 68.787518,316.36887 69.825818,315.99521 71.595718,313.61802 C 73.450818,311.12647 73.589818,309.665 73.307218,295.61802 C 72.703118,265.59308 72.749618,264.68173 75.119318,260.09435 C 77.480118,255.52415 80.223318,253.28036 85.192418,251.85525 C 87.928518,251.07054 88.780318,251.3289 91.589818,253.79564 C 94.558218,256.40191 95.039018,256.526 97.306118,255.27093 C 105.16321,250.92122 115.38401,257.01515 120.79571,269.27612 C 122.02251,272.05561 125.14281,281.52973 127.72971,290.32973 C 133.35941,309.48084 134.43151,319.36182 131.84491,328.25934 C 129.23561,337.235 121.76481,351.7612 116.25751,358.56768 C 110.88051,365.21292 86.694018,387.82973 84.964418,387.82973 C 84.382918,387.82973 85.039018,386.59223 86.422318,385.07973 z M 1.2704132,328.57973 C -1.0889868,324.71003 -1.2451868,321.02577 0.74791323,316.25569 C 2.7725132,311.41022 14.554413,293.87987 15.781413,293.88729 C 16.331413,293.89062 17.606213,294.51841 18.614313,295.2824 C 20.341313,296.59122 20.101313,297.18146 14.459813,305.50059 C 11.166713,310.35662 7.6541132,316.0528 6.6540132,318.15878 C 4.9846132,321.67408 4.9635132,322.21078 6.3972132,324.70883 C 7.7739132,327.10748 7.7858132,327.69047 6.4982132,329.62978 C 4.5296132,332.59457 3.6051132,332.40888 1.2704132,328.57973 z M 150.66441,202.4898 C 139.04471,196.93811 134.73251,182.30195 141.64081,171.86285 C 151.17511,157.45549 171.87531,158.96393 179.02791,174.58727 C 181.05391,179.01263 181.41991,181.0124 180.94211,185.04669 C 179.16711,200.03392 163.91491,208.82073 150.66441,202.4898 z "
       id="path2634" />
    <g
       id="g2340"
       transform="matrix(0.8108194,0,0,0.8108194,284.39445,310.58699)">
      <circle
         id="circle2301"
         r="100"
         cx="0"
         cy="0"
         sodipodi:cx="0"
         sodipodi:cy="0"
         sodipodi:rx="100"
         sodipodi:ry="100"
         style="fill:#ffffff;stroke:none" />
      <circle
         id="circle2303"
         r="100"
         style="fill:url(#shadow1);stroke:none"
         cx="0"
         cy="0"
         sodipodi:cx="0"
         sodipodi:cy="0"
         sodipodi:rx="100"
         sodipodi:ry="100" />
      <use
         id="use2305"
         xlink:href="#black_stuff"
         style="stroke:#eeeeee;stroke-width:7"
         x="0"
         y="0"
         width="744.09448"
         height="1052.3622" />
      <use
         id="use2307"
         xlink:href="#black_stuff"
         style="stroke:#dddddd;stroke-width:4"
         x="0"
         y="0"
         width="744.09448"
         height="1052.3622" />
      <use
         id="use2309"
         xlink:href="#black_stuff"
         style="stroke:#999999;stroke-width:2"
         x="0"
         y="0"
         width="744.09448"
         height="1052.3622" />
      <use
         id="use2311"
         xlink:href="#black_stuff"
         style="stroke:#000000;stroke-width:1"
         x="0"
         y="0"
         width="744.09448"
         height="1052.3622" />
      <circle
         id="circle2313"
         r="100"
         style="fill:url(#shadow2);stroke:none"
         cx="0"
         cy="0"
         sodipodi:cx="0"
         sodipodi:cy="0"
         sodipodi:rx="100"
         sodipodi:ry="100" />
    </g>
  </g>
</svg>
